# xmcd
#
# Track frame offsets:
#	150
#	14027
#	33435
#	46357
#	58437
#	74142
#	86537
#	98352
#	109637
#	124530
#	137590
#	151992
#
# Disc length: 2217 seconds
#
# Revision: 0
# Processed by: cddbd v1.5.1PL0 Copyright (c) Steve Scherf et al.
# Submitted via: dBpowerAMP V4.0
#
DISCID=a108a70c
DTITLE=Nico and Lau - Volume 3
DYEAR=2002
DGENRE=Lambadão
TTITLE0=Acho que to apaixonado
TTITLE1=Pot pourri - profundamente romantico
TTITLE2=Larga de mim
TTITLE3=Essa muie uqe por no mim
TTITLE4=Chego junto
TTITLE5=A minhoca e o minhoco
TTITLE6=Ciume
TTITLE7=Rebola chinoca
TTITLE8=Cachorrada
TTITLE9=Rodeio diferente
TTITLE10=Pobrema essa muie
TTITLE11=Dança do emborcado
EXTD=
EXTT0=
EXTT1=
EXTT2=
EXTT3=
EXTT4=
EXTT5=
EXTT6=
EXTT7=
EXTT8=
EXTT9=
EXTT10=
EXTT11=
PLAYORDER=
